HIERARCHY
ROOT SpineBase
{
  OFFSET 0.000000 0.000000 0.000000
  CHANNELS 6 Xposition Yposition Zposition Zrotation Xrotation Yrotation
  JOINT SpineMid
  {
    OFFSET -0.000000 32.046067 0.000000
    CHANNELS 3 Zrotation Xrotation Yrotation
    JOINT SpineShoulder
    {
      OFFSET 0.153398 23.794771 -0.763641
      CHANNELS 3 Zrotation Xrotation Yrotation
      JOINT Neck
      {
        OFFSET 0.091735 7.867165 -0.578697
        CHANNELS 3 Zrotation Xrotation Yrotation
        JOINT Head
        {
          OFFSET -5.441220 13.468380 0.556522
          CHANNELS 3 Zrotation Xrotation Yrotation
          End Site
          {
            OFFSET 0 0 0
          }
        }
      }
      JOINT ShoulderLeft
      {
        OFFSET -16.104586 -4.796649 8.852335
        CHANNELS 3 Zrotation Xrotation Yrotation
        JOINT ElbowLeft
        {
          OFFSET -4.888783 -26.583080 5.753009
          CHANNELS 3 Zrotation Xrotation Yrotation
          JOINT WristLeft
          {
            OFFSET -1.134642 -25.111458 -1.933245
            CHANNELS 3 Zrotation Xrotation Yrotation
            JOINT HandLeft
            {
              OFFSET -0.141194 -6.154075 0.354018
              CHANNELS 3 Zrotation Xrotation Yrotation
              JOINT HandTipLeft
              {
                OFFSET 0.578617 -8.015798 0.695816
                CHANNELS 3 Zrotation Xrotation Yrotation
                End Site
                {
                  OFFSET 0 0 0
                }
              }
              JOINT ThumbLeft
              {
                OFFSET 4.309449 3.540550 -0.562022
                CHANNELS 3 Zrotation Xrotation Yrotation
                End Site
                {
                  OFFSET 0 0 0
                }
              }
            }
          }
        }
      }
      JOINT ShoulderRight
      {
        OFFSET 11.648251 -4.727965 -8.319518
        CHANNELS 3 Zrotation Xrotation Yrotation
        JOINT ElbowRight
        {
          OFFSET 8.499138 -26.710446 -2.211181
          CHANNELS 3 Zrotation Xrotation Yrotation
          JOINT WristRight
          {
            OFFSET 2.283745 -22.183004 -5.247721
            CHANNELS 3 Zrotation Xrotation Yrotation
            JOINT HandRight
            {
              OFFSET 0.773697 -7.546109 -0.181182
              CHANNELS 3 Zrotation Xrotation Yrotation
              JOINT HandTipRight
              {
                OFFSET -0.100042 -8.123362 0.467667
                CHANNELS 3 Zrotation Xrotation Yrotation
                End Site
                {
                  OFFSET 0 0 0
                }
              }
              JOINT ThumbRight
              {
                OFFSET 3.365393 0.167578 -0.441047
                CHANNELS 3 Zrotation Xrotation Yrotation
                End Site
                {
                  OFFSET 0 0 0
                }
              }
            }
          }
        }
      }
    }
  }
  JOINT HipLeft
  {
    OFFSET -6.422526 -0.408909 -0.424624
    CHANNELS 3 Zrotation Xrotation Yrotation
    JOINT KneeLeft
    {
      OFFSET 0.393910 -36.073797 6.458446
      CHANNELS 3 Zrotation Xrotation Yrotation
      JOINT AnkleLeft
      {
        OFFSET 6.207460 -38.238282 12.994236
        CHANNELS 3 Zrotation Xrotation Yrotation
        JOINT FootLeft
        {
          OFFSET -3.553322 -7.366515 -6.671646
          CHANNELS 3 Zrotation Xrotation Yrotation
          End Site
          {
            OFFSET 0 0 0
          }
        }
      }
    }
  }
  JOINT HipRight
  {
    OFFSET 6.915228 2.070288 -6.628355
    CHANNELS 3 Zrotation Xrotation Yrotation
    JOINT KneeRight
    {
      OFFSET 5.488534 -36.986556 -1.585061
      CHANNELS 3 Zrotation Xrotation Yrotation
      JOINT AnkleRight
      {
        OFFSET 5.931063 -36.222794 9.138802
        CHANNELS 3 Zrotation Xrotation Yrotation
        JOINT FootRight
        {
          OFFSET -0.723410 -8.433674 -5.114430
          CHANNELS 3 Zrotation Xrotation Yrotation
          End Site
          {
            OFFSET 0 0 0
          }
        }
      }
    }
  }
}
MOTION
Frames: 13
Frame Time: 0.033333
-22.983749 83.566306 329.462168 0.000000 0.000000 24.944343 -0.000000 -0.000000 -24.944343 -0.000000 0.000000 0.000000 -0.000000 0.000000 0.000000 0.000000 0.000000 0.000000 -0.000000 0.000000 0.000000 -0.000000 0.000000 0.000000 -0.000000 0.000000 0.000000 -0.000000 0.000000 0.000000 0.000000 0.000000 0.000000 0.000000 0.000000 0.000000 -0.000000 0.000000 0.000000 -0.000000 0.000000 0.000000 -0.000000 0.000000 0.000000 -0.000000 0.000000 0.000000 0.000000 0.000000 0.000000 0.000000 0.000000 0.000000 -0.000000 -0.000000 -24.944343 -0.000000 0.000000 0.000000 -0.000000 0.000000 0.000000 0.000000 0.000000 0.000000 -0.000000 -0.000000 -24.944343 -0.000000 0.000000 0.000000 -0.000000 0.000000 0.000000 0.000000 0.000000 0.000000
-22.823057 83.486378 329.150519 -0.756496 -0.437452 25.227142 -0.091142 -0.048889 -25.253278 0.014094 -0.028599 -0.030086 0.803523 0.549868 0.048861 0.000000 0.000000 0.000000 0.803523 0.549868 0.048861 -0.000000 0.000000 0.000000 2.242589 0.922696 0.089875 -2.244322 -0.918471 -0.125927 0.000000 0.000000 0.000000 0.000000 0.000000 0.000000 0.803523 0.549868 0.048861 -0.356822 1.314922 0.223349 -1.544278 1.581025 0.131743 0.634038 -2.162487 -0.431800 0.000000 0.000000 0.000000 0.000000 0.000000 0.000000 0.870787 0.073276 -25.230587 -0.000000 0.000000 0.000000 2.826072 -6.479057 0.777664 0.000000 0.000000 0.000000 0.870787 0.073276 -25.230587 -0.750352 -0.579950 -0.288011 0.747467 0.583665 0.280406 0.000000 0.000000 0.000000
-22.637827 83.397717 328.866759 -1.442894 -0.880375 25.457783 -0.157590 -0.096756 -25.513027 0.030635 -0.053336 -0.056645 1.511147 1.091439 0.084115 0.000000 0.000000 0.000000 1.943040 -0.179099 0.406976 -0.422884 1.273570 -0.321600 3.620628 1.495091 0.126975 -4.183935 -0.417698 -0.202488 0.000000 0.000000 0.000000 0.000000 0.000000 0.000000 0.660769 1.958057 0.453808 0.143101 1.624402 0.087971 -2.886431 2.846434 0.236292 1.225679 -3.864298 -0.809524 0.000000 0.000000 0.000000 0.000000 0.000000 0.000000 2.291193 1.290875 -25.452691 -0.483707 -2.350607 -0.354921 5.299558 -9.792913 1.721196 0.000000 0.000000 0.000000 2.783217 0.075341 -25.461258 -2.466427 -1.486139 -0.580038 1.417819 1.115852 0.526855 0.000000 0.000000 0.000000
-22.428060 83.300325 328.610887 -2.059667 -1.328901 25.638295 -0.199861 -0.144156 -25.724840 0.049459 -0.074444 -0.079633 2.124265 1.624959 0.107333 0.000000 0.000000 0.000000 2.750134 -0.147896 0.559215 -0.608579 1.778870 -0.450502 4.343833 1.801214 0.140606 -5.549857 0.186556 -0.256455 0.000000 0.000000 0.000000 0.000000 0.000000 0.000000 0.981166 2.859989 0.641325 0.085785 2.289156 0.145716 -4.007791 3.777936 0.301142 1.768579 -5.085304 -1.118575 0.000000 0.000000 0.000000 0.000000 0.000000 0.000000 3.120596 2.027418 -25.684917 -0.540764 -3.369985 -0.497264 6.556474 -11.375536 2.194776 0.000000 0.000000 0.000000 4.040942 0.197170 -25.651112 -3.534507 -2.166497 -0.851721 2.013849 1.597089 0.742048 0.000000 0.000000 0.000000
-22.193754 83.194201 328.382904 -2.607281 -1.783231 25.770536 -0.218432 -0.191544 -25.889832 0.070430 -0.092137 -0.099018 2.644148 2.150810 0.120006 0.000000 0.000000 0.000000 3.447856 -0.035604 0.678971 -0.777751 2.195781 -0.558898 4.497492 1.876159 0.142389 -6.617947 1.296467 -0.257313 0.000000 0.000000 0.000000 0.000000 0.000000 0.000000 1.294790 3.714747 0.800685 -0.054038 2.844191 0.207754 -4.899733 4.372485 0.317757 2.261623 -5.821925 -1.349555 0.000000 0.000000 0.000000 0.000000 0.000000 0.000000 3.746081 2.835530 -25.900092 -0.476666 -4.289582 -0.614004 6.661552 -10.537530 2.202078 0.000000 0.000000 0.000000 5.210839 0.380514 -25.798858 -4.494560 -2.808144 -1.109439 1.501197 1.563265 1.633302 0.000000 0.000000 0.000000
-21.934911 83.079345 328.182810 -3.086167 -2.243628 25.856230 -0.213715 -0.239285 -26.009018 0.093437 -0.106602 -0.114784 1.913003 2.622610 0.207303 0.000000 0.000000 0.000000 4.036554 0.158267 0.767531 -0.930788 2.523934 -0.647290 4.072044 1.717024 0.134129 -7.406588 2.934859 -0.176702 0.000000 0.000000 0.000000 0.000000 0.000000 0.000000 1.602329 4.524979 0.930520 -0.274625 3.282758 0.270966 -5.561323 4.637089 0.281782 2.706220 -6.081627 -1.497906 0.000000 0.000000 0.000000 0.000000 0.000000 0.000000 4.169375 3.722851 -26.095810 -0.289829 -5.111970 -0.702930 5.603973 -7.250508 1.788398 0.000000 0.000000 0.000000 6.293669 0.628880 -25.906913 -5.347788 -3.413216 -1.351959 1.361638 1.503732 2.220924 0.000000 0.000000 0.000000
-21.668793 82.940140 328.043594 -3.522806 -2.783434 25.857557 -0.162997 -0.326406 -26.047481 0.132351 -0.131567 -0.125600 1.395622 3.205970 0.275869 0.000000 0.000000 0.000000 4.630856 0.786440 0.797563 -1.212047 2.523566 -0.701764 2.362031 1.101048 0.088026 -9.226973 6.796349 0.183124 0.000000 0.000000 0.000000 0.000000 0.000000 0.000000 1.848921 5.351430 1.014044 -0.595266 3.852604 0.385537 -5.782771 4.917500 0.228342 3.049122 -5.537843 -1.591077 0.000000 0.000000 0.000000 0.000000 0.000000 0.000000 4.456993 4.972417 -26.248500 0.074201 -6.136708 -0.779529 1.696978 3.655096 0.277254 0.000000 0.000000 0.000000 7.573299 1.023263 -25.941994 -6.397169 -4.124076 -1.635294 1.086606 1.159453 2.947299 0.000000 0.000000 0.000000
-21.344660 82.793330 327.900656 -3.843469 -3.278263 25.833587 -0.061978 -0.396588 -26.055811 0.180168 -0.138168 -0.129957 0.603281 3.551174 0.304816 0.000000 0.000000 0.000000 5.057335 1.216505 0.836496 -0.510241 3.184369 -0.921344 -0.819124 0.352770 0.082999 -9.214706 7.581390 0.370847 0.000000 0.000000 0.000000 0.000000 0.000000 0.000000 2.130618 6.125393 1.073036 -1.095643 4.052694 0.454079 -5.942065 4.996154 0.158228 4.028192 -3.846940 -1.465360 0.000000 0.000000 0.000000 0.000000 0.000000 0.000000 4.343291 6.364159 -26.404629 0.806196 -7.027929 -0.745616 -0.709777 10.336080 -0.026811 0.000000 0.000000 0.000000 8.538734 1.445287 -25.960769 -7.130610 -4.684001 -1.860436 0.487330 0.536061 3.766381 0.000000 0.000000 0.000000
-21.002724 82.655449 327.801533 -4.096597 -3.741361 25.750554 -0.026044 -0.435384 -26.003484 0.184815 -0.146208 -0.136765 0.309186 3.943022 0.329421 0.000000 0.000000 0.000000 5.134350 1.476671 0.834772 0.323835 3.592213 -1.045754 -6.028485 -0.858276 -0.158671 -6.411283 9.241639 0.866521 0.000000 0.000000 0.000000 0.000000 0.000000 0.000000 2.512818 6.802644 1.098360 -1.482195 4.047188 0.473120 -6.148126 4.145189 -0.038075 3.924620 -2.730484 -1.443925 0.000000 0.000000 0.000000 0.000000 0.000000 0.000000 4.072127 7.466379 -26.473221 1.423853 -7.426460 -0.704827 -2.156142 13.482950 0.438678 0.000000 0.000000 0.000000 9.263727 1.955343 -25.918556 -7.521530 -5.198372 -2.037109 -0.312133 -0.088326 4.561322 0.000000 0.000000 0.000000
-20.607705 82.525086 327.653084 -4.309013 -4.167671 25.631226 0.063856 -0.420125 -25.910878 0.212002 -0.115864 -0.139601 -0.067106 4.107822 0.317823 0.000000 0.000000 0.000000 4.950989 1.442343 0.840211 0.787586 3.602022 -1.067348 -9.332707 -4.359108 -0.498330 -4.364792 15.016671 1.857126 0.000000 0.000000 0.000000 0.000000 0.000000 0.000000 2.769284 7.326383 1.124756 -1.889504 3.851869 0.480097 -6.160223 2.489692 -0.387776 3.873555 -2.240502 -1.325639 0.000000 0.000000 0.000000 0.000000 0.000000 0.000000 3.671037 8.165333 -26.473042 1.891398 -7.272001 -0.664959 -3.004109 14.144614 1.345422 0.000000 0.000000 0.000000 9.710866 2.406870 -25.846975 -7.668857 -5.509603 -2.152812 -1.212478 -0.557333 5.335504 0.000000 0.000000 0.000000
-20.257671 82.427652 327.540463 -4.451513 -4.492359 25.446251 0.098004 -0.401941 -25.746337 0.216120 -0.107479 -0.143301 -0.218347 4.087523 0.224030 0.000000 0.000000 0.000000 4.877143 1.397846 0.858114 0.781492 3.408965 -1.041213 -9.975056 -7.908471 -0.736581 -5.030603 21.450645 3.029593 0.000000 0.000000 0.000000 0.000000 0.000000 0.000000 2.972428 7.675404 1.123520 -2.116004 3.672758 0.481487 -6.058896 -0.262346 -0.912616 3.501140 -0.245437 -1.064790 0.000000 0.000000 0.000000 0.000000 0.000000 0.000000 3.367706 8.478280 -26.356637 1.915029 -6.801542 -0.714238 -3.099968 12.012159 2.746175 0.000000 0.000000 0.000000 9.937839 2.863669 -25.691005 -7.593334 -5.767314 -2.228260 -2.119897 -0.959739 6.003474 0.000000 0.000000 0.000000
-19.935763 82.335474 327.456931 -4.532552 -4.780641 25.126949 0.157093 -0.351231 -25.441074 0.231038 -0.072686 -0.143394 -0.224478 4.155783 0.183092 0.000000 0.000000 0.000000 4.853954 1.416379 0.869819 0.541081 3.140639 -0.997557 -8.345760 -13.832647 -0.794638 -6.171451 29.308182 4.218107 0.000000 0.000000 0.000000 0.000000 0.000000 0.000000 3.018844 7.711857 1.068562 -2.129302 3.429080 0.485685 -5.921501 -3.189863 -1.421207 2.560145 2.341033 -0.730593 0.000000 0.000000 0.000000 0.000000 0.000000 0.000000 3.103712 8.481271 -26.073217 1.635859 -6.011250 -0.807107 -2.122512 6.778329 4.544995 0.000000 0.000000 0.000000 9.949938 3.385352 -25.389124 -7.313742 -6.010393 -2.281667 -2.856747 -1.049499 6.484358 0.000000 0.000000 0.000000
-19.633877 82.246030 327.369922 -4.548309 -4.978932 24.756216 0.152726 -0.326918 -25.077882 0.223698 -0.066650 -0.144158 -0.306789 3.992724 0.052894 0.000000 0.000000 0.000000 4.671241 1.343333 0.871812 0.385825 2.676350 -0.915451 -6.734228 -16.906991 -0.667345 -4.395573 29.322947 3.137742 0.000000 0.000000 0.000000 0.000000 0.000000 0.000000 3.010512 7.629407 0.989855 -2.114294 3.056343 0.502159 -5.900794 -6.711682 -2.037926 2.446929 5.617937 -0.194213 0.000000 0.000000 0.000000 0.000000 0.000000 0.000000 2.957714 8.287335 -25.707694 1.048758 -5.186680 -0.962228 0.973143 -2.740606 6.898553 0.000000 0.000000 0.000000 9.809009 3.796330 -25.026884 -7.107579 -6.144684 -2.338366 -3.250729 -1.120313 6.814714 0.000000 0.000000 0.000000
